<svg width="96" height="32" viewBox="0 0 96 32" fill="none" xmlns="http://www.w3.org/2000/svg">
  <circle cx="24" cy="16" r="10" fill="#EB001B"/>
  <circle cx="36" cy="16" r="10" fill="#F79E1B"/>
  <path d="M30 8.93C31.81 10.75 32.94 13.25 32.94 16C32.94 18.75 31.81 21.25 30 23.07C28.19 21.25 27.06 18.75 27.06 16C27.06 13.25 28.19 10.75 30 8.93Z" fill="#FF5F00"/>
  <path d="M51.1 19.22V12.95H49.23L47.08 17.85L44.93 12.95H43.04V19.22H44.41V14.77L46.37 19.22H47.75L49.71 14.75V19.22H51.1Z" fill="#1A1F71"/>
  <path d="M57.27 19.22H58.5L55.78 12.95H54.31L51.59 19.22H52.82L53.4 17.83H56.69L57.27 19.22ZM55.04 13.98L56.24 16.84H53.84L55.04 13.98Z" fill="#1A1F71"/>
  <path d="M64.72 14.95C64.35 13.7 63.29 12.95 61.8 12.95H59.34V19.22H60.49V16.87H61.8C63.29 16.87 64.35 16.12 64.72 14.95ZM63.57 14.95C63.33 15.63 62.73 15.88 61.95 15.88H60.49V13.94H61.95C62.73 13.94 63.33 14.19 63.57 14.95Z" fill="#1A1F71"/>
  <path d="M67.34 19.22V12.95H66.19V19.22H67.34Z" fill="#1A1F71"/>
  <path d="M72.63 19.22H73.86L71.14 12.95H69.67L66.95 19.22H68.18L68.76 17.83H72.05L72.63 19.22ZM70.4 13.98L71.6 16.84H69.2L70.4 13.98Z" fill="#1A1F71"/>
  <path d="M78.8 17.45C78.8 15.28 75.45 16.1 75.45 14.75C75.45 14.19 75.95 13.81 76.72 13.81C77.5 13.81 78.03 14.23 78.1 14.96H79.26C79.15 13.62 78.13 12.84 76.76 12.84C75.29 12.84 74.3 13.63 74.3 14.82C74.3 17.05 77.65 16.15 77.65 17.55C77.65 18.11 77.13 18.45 76.34 18.45C75.46 18.45 74.84 17.99 74.78 17.18H73.62C73.71 18.55 74.82 19.42 76.31 19.42C77.83 19.42 78.8 18.64 78.8 17.45Z" fill="#1A1F71"/>
</svg>
